<?xml version="1.0" encoding="utf-8"?><!-- Uploaded to: SVG Repo, www.svgrepo.com, Generator: SVG Repo Mixer Tools -->
<svg width="800px" height="800px" viewBox="0 0 24 24" fill="none" xmlns="http://www.w3.org/2000/svg">
<path d="M12 15.81C11.8776 15.8098 11.7573 15.7789 11.65 15.72C11.36 15.57 8.81 14.18 8.23 12.2C8.04914 11.6901 7.98755 11.1456 8.04995 10.6082C8.11236 10.0708 8.29711 9.55486 8.59 9.1C8.80975 8.80872 9.09592 8.57416 9.42468 8.41587C9.75344 8.25758 10.1153 8.18014 10.48 8.19C11.041 8.17826 11.5851 8.3823 12 8.76C12.4149 8.3823 12.959 8.17826 13.52 8.19C13.8847 8.18014 14.2466 8.25758 14.5753 8.41587C14.9041 8.57416 15.1903 8.80872 15.41 9.1C15.7029 9.55486 15.8876 10.0708 15.9501 10.6082C16.0125 11.1456 15.9509 11.6901 15.77 12.2C15.19 14.2 12.64 15.57 12.35 15.72C12.2427 15.7789 12.1224 15.8098 12 15.81ZM10.48 9.69C10.3482 9.67984 10.216 9.70289 10.0955 9.75705C9.97494 9.81121 9.86991 9.89474 9.79 10C9.64055 10.2697 9.55232 10.569 9.53158 10.8766C9.51085 11.1843 9.5581 11.4927 9.67 11.78C10.1764 12.8066 10.9911 13.6492 12 14.19C13.0089 13.6492 13.8236 12.8066 14.33 11.78C14.4419 11.4927 14.4892 11.1843 14.4684 10.8766C14.4477 10.569 14.3595 10.2697 14.21 10C14.1301 9.89474 14.0251 9.81121 13.9045 9.75705C13.784 9.70289 13.6518 9.67984 13.52 9.69C13.4168 9.68856 13.3144 9.70816 13.219 9.74761C13.1236 9.78707 13.0372 9.84554 12.9652 9.91946C12.8931 9.99338 12.8369 10.0812 12.7999 10.1776C12.7629 10.274 12.7459 10.3769 12.75 10.48C12.75 10.6789 12.671 10.8697 12.5303 11.0103C12.3897 11.151 12.1989 11.23 12 11.23C11.8011 11.23 11.6103 11.151 11.4697 11.0103C11.329 10.8697 11.25 10.6789 11.25 10.48C11.2556 10.3765 11.2396 10.2729 11.2032 10.1759C11.1667 10.0789 11.1105 9.99045 11.0382 9.91622C10.9658 9.84198 10.8789 9.78356 10.7828 9.74462C10.6867 9.70568 10.5836 9.68709 10.48 9.69Z" fill="#000000"/>
<path d="M17 22.71H7C6.00887 22.7153 5.05594 22.3281 4.34949 21.6329C3.64305 20.9377 3.24056 19.9911 3.23 19V5C3.24056 4.00891 3.64305 3.06231 4.34949 2.36711C5.05594 1.67191 6.00887 1.28466 7 1.29H17C17.9911 1.28466 18.9441 1.67191 19.6505 2.36711C20.357 3.06231 20.7594 4.00891 20.77 5V19C20.7594 19.9911 20.357 20.9377 19.6505 21.6329C18.9441 22.3281 17.9911 22.7153 17 22.71ZM7 2.79C6.40668 2.78463 5.83525 3.01385 5.41011 3.42775C4.98497 3.84166 4.74053 4.40674 4.73 5V19C4.74053 19.5933 4.98497 20.1583 5.41011 20.5722C5.83525 20.9862 6.40668 21.2154 7 21.21H17C17.5933 21.2154 18.1648 20.9862 18.5899 20.5722C19.015 20.1583 19.2595 19.5933 19.27 19V5C19.2595 4.40674 19.015 3.84166 18.5899 3.42775C18.1648 3.01385 17.5933 2.78463 17 2.79H7Z" fill="#000000"/>
</svg>