<?xml version="1.0"?><svg fill="#1A1A1A" xmlns="http://www.w3.org/2000/svg"  viewBox="0 0 50 50" width="50px" height="50px">    <path d="M 9 4 C 6.2504839 4 4 6.2504839 4 9 L 4 41 C 4 43.749516 6.2504839 46 9 46 L 41 46 C 43.749516 46 46 43.749516 46 41 L 46 9 C 46 6.2504839 43.749516 4 41 4 L 9 4 z M 9 6 L 41 6 C 42.668484 6 44 7.3315161 44 9 L 44 41 C 44 42.668484 42.668484 44 41 44 L 9 44 C 7.3315161 44 6 42.668484 6 41 L 6 9 C 6 7.3315161 7.3315161 6 9 6 z M 30.037109 18 C 25.416109 18 24.987266 21.891031 25.072266 23.707031 L 26.955078 23.707031 C 26.955078 23.188031 27.128109 19.730469 30.037109 19.730469 C 32.776109 19.730469 33.117188 22.151984 33.117188 22.583984 C 33.117187 27.426984 24.646484 27.254 24.646484 34 L 34.914062 34 L 34.914062 32.269531 L 26.785156 32.269531 C 27.213156 28.724531 35 28.032984 35 22.583984 C 35 21.804984 34.658109 18 30.037109 18 z M 15 27 L 17.84375 30.480469 L 15 34 L 17.34375 34 L 19.021484 31.923828 L 20.71875 34 L 23 34 L 20.164062 30.509766 L 23 27 L 20.65625 27 L 18.988281 29.0625 L 17.3125 27 L 15 27 z"/></svg>